<?xml version="1.0" encoding="utf-8"?>
<!-- Generator: Adobe Illustrator 19.0.0, SVG Export Plug-In . SVG Version: 6.00 Build 0)  -->
<svg version="1.1" id="Layer_1" xmlns="http://www.w3.org/2000/svg" xmlns:xlink="http://www.w3.org/1999/xlink" x="0px" y="0px"
	 viewBox="0 0 64 64" style="enable-background:new 0 0 64 64;" xml:space="preserve">
<g id="XMLID_1_">
	<path id="XMLID_10_" d="M9.2,48.9c-0.1,0.1,0,0.1,0,0.2l0.2,0.3l-0.4,0c-0.3,0-0.7,0-1,0c-0.4,0-0.9,0.1-1.3,0.1
		c-0.5,0-1,0-1.4-0.1c-0.4-0.1-0.7-0.3-0.8-0.7C4.2,48,4.1,47.3,4,46.5c0-0.5-0.1-1-0.1-1.5c0,2.9,0,5.8,0,8.6
		c0,0.5,0.3,0.9,0.7,1.1c0.6,0.3,1.2,0.2,1.9,0.3c1.4,0.1,2.9,0,4.3-0.1c0.6-0.1,1.3-0.5,1.3-1.2c0-1.7,0-3.4,0-5.1h0v-0.2
		c-0.8,0-1.7,0-2.5,0C9.4,48.7,9.3,48.7,9.2,48.9"/>
	<path id="XMLID_9_" d="M60,46.4c-0.1,0.9-0.2,1.7-0.4,2.4c-0.1,0.4-0.4,0.6-0.8,0.7c-0.4,0.1-0.9,0.1-1.4,0.1c-0.4,0-0.9,0-1.3-0.1
		c-0.3,0-0.7,0-1,0l-0.4,0l0.2-0.3c0,0,0-0.1,0-0.2c-0.1-0.1-0.2-0.2-0.4-0.2c0,0,0,0,0,0l0,0h0c-0.8,0-1.7,0-2.5,0v0.2h0
		c0,1.7,0,3.4,0,5c0.1,0.7,0.7,1.2,1.4,1.2c1.8,0.2,3.6,0.2,5.4,0c0.7-0.1,1.3-0.5,1.4-1.2c0-2.7,0-5.3,0-8C60,46,60,46.2,60,46.4"
		/>
	<path id="XMLID_4_" d="M57.3,35.5c-2,0.4-4.1,0.6-6.1,0.6c-1,0-2,0.1-3,0.1c-0.2,0-0.3,0-0.5,0c-0.6-0.1-1.4-0.2-1.7-0.8
		c-0.3-0.6-0.5-1.2-0.7-1.9c0-0.1,0.1-0.1,0.2-0.2c2.8-0.8,5.5-1.5,8.3-2c0.9-0.2,1.8-0.3,2.8-0.5c0,0,0.1,0,0.1,0
		c0.4,0,0.6,0.5,0.7,0.9c0.2,1.1,0.2,2.3,0.3,3.5C57.7,35.5,57.4,35.5,57.3,35.5 M17.8,35.8c-0.6,0.4-1.3,0.5-1.9,0.5
		c-0.1,0-0.2,0-0.3,0c-3.1-0.2-6.1-0.1-9.1-0.9c0-1.1,0-2.3,0.2-3.4c0.1-0.4,0.2-0.9,0.6-1.1c0,0,0.1,0,0.1,0c0.5,0,1,0.2,1.5,0.2
		c2.8,0.4,5.5,1.1,8.2,1.8c0.6,0.2,1.3,0.3,1.8,0.5C18.5,34.3,18.3,35.2,17.8,35.8 M9.7,22.8c0.8-2.6,1.8-5.2,2.8-7.7
		c0.3-0.9,0.7-1.7,1-2.6c6-0.5,12-0.6,18-0.6c0.3,0,0.6,0,1,0c6,0,11.9,0.1,17.9,0.6c0,0,0,0,0,0c0.1,0,0.1,0,0.1,0.1
		c0.3,0.9,0.7,1.7,1,2.5c1,2.5,2,5,2.7,7.6c0,0.4,0.1,0.9-0.1,1.3c-0.3,0.5-0.9,0.6-1.4,0.6c-24.5,1.9-42.1,0-42.1,0
		c-0.5,0-0.9-0.4-0.9-0.9C9.7,23.4,9.7,23.1,9.7,22.8 M64,23.1c-0.1-0.9-0.3-1.9-1-2.5c-0.5-0.3-1.2-0.4-1.8-0.5
		c-0.7-0.1-1.4-0.1-2.1-0.1c-0.3,0-0.7,0-1,0.1c-0.7,0.1-0.9,0.9-1,1.5C57,22.2,57,22.8,57,23.4c-0.2-0.4-0.4-0.9-0.6-1.3
		c-1.4-3.6-3-7.1-5.1-10.4c-0.2-0.5-0.6-0.9-0.9-1.3C50,10,49.5,9.8,48.9,9.7c-0.1,0-0.1,0-0.2,0c-0.2,0-0.5-0.1-0.7-0.1
		c-0.1,0-0.1,0-0.2,0L46,9.4c0,0,0,0-0.1,0c-2.6-0.2-5.1-0.4-7.7-0.5c-2.2-0.1-4.3-0.1-6.5-0.1c-4.5,0-9,0.1-13.6,0.6l-1.9,0.2
		c-0.1,0-0.1,0-0.2,0c-0.2,0-0.5,0.1-0.7,0.1c-0.1,0-0.1,0-0.2,0c-0.7,0.1-1.3,0.5-1.7,1c-0.3,0.3-0.6,0.6-0.8,1
		c-2.1,3.4-3.7,7.1-5.2,10.8c-0.1,0.3-0.3,0.7-0.4,1c0-0.7,0-1.5-0.2-2.2c-0.1-0.5-0.3-0.9-0.8-1.1C5.8,20.1,5.5,20,5.2,20
		c-0.3,0-0.6,0-1,0h0c-1,0.1-2,0.1-2.9,0.4c-1,0.4-1.2,1.6-1.3,2.6c0,0.6,0.1,1.3,0.6,1.7c0.9,0.4,1.9,0.3,2.8,0.4c0.7,0,1.4,0,2,0
		c0.1,0,0.2,0,0.3,0c-0.1,0.3-0.2,0.6-0.3,0.8c-0.1,0-0.1,0-0.2,0c-0.4,0-0.6,0.5-0.6,0.9c0,0.2,0.2,0.3,0.4,0.4
		c0,0.1-0.1,0.1-0.2,0.1c-0.1,0-0.1,0-0.2,0c-0.1,0-0.1,0-0.2,0.1c-0.2,0.3-0.3,0.8-0.1,1.1c-0.2,0.9-0.4,1.8-0.5,2.8
		c0,0.3-0.2,0.5-0.2,0.8c0,2.7,0,5.4,0.1,8c0.1,2.1,0.2,4.1,0.3,6.2c0,0.7,0.1,1.4,0.3,2.1c0.1,0.3,0.3,0.5,0.6,0.6
		c0.5,0.1,0.9,0.1,1.4,0.1c0.8,0,1.6-0.1,2.4-0.1c-0.2-0.4,0.2-0.7,0.6-0.7c3-0.1,6.1-0.1,9.1-0.1h28c2.2,0,4.3,0,6.5,0.1
		c0.4,0,0.8,0,1.3,0c0,0,0,0,0.1,0c0.4,0,0.8,0.4,0.6,0.7c0.8,0,1.6,0.1,2.4,0.1c0.4,0,0.9,0,1.3-0.1c0.3,0,0.6-0.2,0.6-0.5
		c0.2-0.7,0.3-1.5,0.4-2.3c0.2-1.7,0.2-3.3,0.3-5c0.2-3.1,0.2-6.1,0.2-9.2c-0.2-1.2-0.4-2.3-0.6-3.5c0.1-0.4,0.1-0.8-0.1-1.1
		c0-0.1-0.1-0.1-0.2-0.1c-0.1,0-0.1,0-0.2,0c-0.1,0-0.2,0-0.2-0.1c0.1-0.1,0.4-0.2,0.4-0.4c0-0.4-0.1-0.9-0.6-0.9c0,0-0.1,0-0.2,0
		c-0.2-0.2-0.2-0.6-0.3-0.8c0.1,0,0.2,0,0.3,0c0.7,0,1.3,0,2,0h0c0.9-0.1,1.9,0,2.8-0.4C63.9,24.4,64,23.7,64,23.1"/>
</g>
</svg>
