<?xml version="1.0" encoding="utf-8"?>
<!-- Generator: Adobe Illustrator 23.0.3, SVG Export Plug-In . SVG Version: 6.00 Build 0)  -->
<svg version="1.1" id="Layer_1" xmlns="http://www.w3.org/2000/svg" xmlns:xlink="http://www.w3.org/1999/xlink" x="0px" y="0px"
	 viewBox="0 0 512 512" style="enable-background:new 0 0 512 512;" xml:space="preserve">
<g>
	<path d="M256,64C150.1,64,64,150.1,64,256s86.1,192,192,192s192-86.1,192-192S361.9,64,256,64z M256,420.1
		c-90.5,0-164.2-73.6-164.2-164.2c0-90.5,73.6-164.1,164.2-164.1c90.5,0,164.1,73.6,164.1,164.1C420.1,346.5,346.5,420.1,256,420.1z
		"/>
	<g>
		<rect x="240" y="303.3" width="31.4" height="29.4"/>
		<polygon points="268.5,286.3 272,179.4 240,179.4 243.5,286.3 		"/>
	</g>
</g>
</svg>
