<?xml version="1.0" encoding="utf-8"?>
<!-- Generator: Adobe Illustrator 25.2.3, SVG Export Plug-In . SVG Version: 6.00 Build 0)  -->
<!DOCTYPE svg PUBLIC "-//W3C//DTD SVG 1.1//EN" "http://www.w3.org/Graphics/SVG/1.1/DTD/svg11.dtd">
<svg version="1.1" id="Layer_1" xmlns="http://www.w3.org/2000/svg" xmlns:xlink="http://www.w3.org/1999/xlink" x="0px" y="0px"
	 viewBox="0 0 93.3 72.7" style="enable-background:new 0 0 93.3 72.7;" xml:space="preserve">
<g>
	<path d="M46.7,72.7c-2,0-3.6-1.6-3.6-3.6s1.6-3.6,3.6-3.6c0.9,0,1.9,0.4,2.6,1.1c0.7,0.7,1.1,1.6,1.1,2.6
		C50.3,71.1,48.7,72.7,46.7,72.7z M46.7,68.7c-0.2,0-0.4,0.2-0.4,0.4c0,0.1,0,0.2,0.1,0.3c0.1,0.1,0.2,0.1,0.3,0.1
		c0.2,0,0.4-0.2,0.4-0.4C47.1,68.9,46.9,68.7,46.7,68.7z M46.7,69.5L46.7,69.5L46.7,69.5z M46.7,67.5L46.7,67.5L46.7,67.5z"/>
</g>
<g>
	<path d="M91.4,20.4c-0.5,0-0.9-0.2-1.3-0.5C64.9-1.3,28.5-1.3,3.3,19.9c-0.8,0.7-2.1,0.6-2.8-0.2s-0.6-2.1,0.2-2.8
		C27.3-5.6,66-5.6,92.6,16.9c0.8,0.7,1,2,0.2,2.8C92.5,20.1,91.9,20.4,91.4,20.4z"/>
</g>
<g>
	<path d="M27.7,54.8c-0.5,0-1-0.2-1.4-0.6c-0.8-0.8-0.8-2,0-2.8c11.2-11.2,29.5-11.2,40.8,0c0.8,0.8,0.8,2,0,2.8s-2,0.8-2.8,0
		c-9.7-9.6-25.5-9.6-35.1,0C28.7,54.6,28.2,54.8,27.7,54.8z"/>
</g>
<g>
	<path d="M53.1,34.1c-0.5,0-1-0.2-1.4-0.6L38.8,20.6c-0.8-0.8-0.8-2,0-2.8s2-0.8,2.8,0l12.9,12.9c0.8,0.8,0.8,2,0,2.8
		C54.2,33.9,53.7,34.1,53.1,34.1z"/>
</g>
<g>
	<path d="M40.3,34.1c-0.5,0-1-0.2-1.4-0.6c-0.8-0.8-0.8-2,0-2.8l12.9-12.9c0.8-0.8,2-0.8,2.8,0s0.8,2,0,2.8L41.7,33.5
		C41.3,33.9,40.8,34.1,40.3,34.1z"/>
</g>
<g>
	<path d="M78.5,38.4c-0.5,0-1-0.2-1.3-0.5c-3-2.7-6.3-5-9.9-6.7c-1-0.5-1.4-1.7-0.9-2.7s1.7-1.4,2.7-0.9C73,29.5,76.7,32,79.9,35
		c0.8,0.7,0.9,2,0.1,2.8C79.6,38.2,79,38.4,78.5,38.4z"/>
</g>
<g>
	<path d="M14.9,38.4c-0.5,0-1.1-0.2-1.5-0.7c-0.7-0.8-0.7-2.1,0.1-2.8c3.2-3,6.9-5.4,10.8-7.4c1-0.5,2.2-0.1,2.7,0.9
		s0.1,2.2-0.9,2.7c-3.6,1.8-6.9,4.1-9.9,6.8C15.9,38.2,15.4,38.4,14.9,38.4z"/>
</g>
</svg>
