<?xml version="1.0" encoding="utf-8"?>
<!-- Generator: Adobe Illustrator 19.0.0, SVG Export Plug-In . SVG Version: 6.00 Build 0)  -->
<svg version="1.1" id="Layer_1" xmlns="http://www.w3.org/2000/svg" xmlns:xlink="http://www.w3.org/1999/xlink" x="0px" y="0px"
	 viewBox="0 0 64 64" style="enable-background:new 0 0 64 64;" xml:space="preserve">
<g id="XMLID_69_">
	<path id="XMLID_89_" d="M33.6,63.3c-0.9,0.9-2.4,0.9-3.3,0c-0.9-0.9-0.9-2.4,0-3.3c0.9-0.9,2.4-0.9,3.3,0
		C34.5,61,34.5,62.4,33.6,63.3"/>
	<path id="XMLID_88_" d="M44.2,60.9c-0.5,1.2-1.9,1.7-3.1,1.1c-1.2-0.5-1.7-1.9-1.1-3.1c0.5-1.2,1.9-1.7,3.1-1.1
		C44.3,58.4,44.8,59.7,44.2,60.9"/>
	<path id="XMLID_87_" d="M53.4,54.9c-0.1,1.3-1.2,2.2-2.5,2.1c-1.3-0.1-2.2-1.2-2.1-2.5c0.1-1.3,1.2-2.2,2.5-2.1
		C52.6,52.6,53.5,53.7,53.4,54.9"/>
	<path id="XMLID_86_" d="M59.9,46.3c0.3,1.2-0.4,2.5-1.6,2.8c-1.2,0.3-2.5-0.4-2.8-1.6c-0.3-1.2,0.4-2.5,1.6-2.8
		C58.4,44.3,59.6,45,59.9,46.3"/>
	<path id="XMLID_85_" d="M63.1,35.8c0.7,1,0.5,2.5-0.6,3.2c-1,0.7-2.5,0.5-3.2-0.6c-0.7-1-0.5-2.5,0.6-3.2
		C61,34.5,62.4,34.8,63.1,35.8"/>
	<path id="XMLID_84_" d="M62.6,25c1,0.7,1.3,2.2,0.6,3.2c-0.7,1-2.2,1.3-3.2,0.6c-1-0.7-1.3-2.2-0.6-3.2
		C60.1,24.5,61.5,24.2,62.6,25"/>
	<path id="XMLID_83_" d="M58.3,14.9c1.2,0.3,2,1.6,1.6,2.8c-0.3,1.2-1.6,2-2.8,1.6c-1.2-0.3-2-1.6-1.6-2.8
		C55.8,15.3,57.1,14.6,58.3,14.9"/>
	<path id="XMLID_82_" d="M50.9,7c1.3-0.1,2.4,0.8,2.5,2.1c0.1,1.3-0.8,2.4-2.1,2.5c-1.3,0.1-2.4-0.8-2.5-2.1
		C48.7,8.2,49.6,7.1,50.9,7"/>
	<path id="XMLID_81_" d="M41.2,2c1.2-0.5,2.5,0,3.1,1.1c0.5,1.2,0,2.5-1.1,3.1c-1.2,0.5-2.5,0-3.1-1.1C39.5,3.9,40,2.5,41.2,2"/>
	<path id="XMLID_80_" d="M30.4,0.7c0.9-0.9,2.4-0.9,3.3,0c0.9,0.9,0.9,2.4,0,3.3c-0.9,0.9-2.4,0.9-3.3,0C29.5,3,29.5,1.6,30.4,0.7"
		/>
	<path id="XMLID_79_" d="M19.8,3.1C20.3,2,21.7,1.5,22.8,2c1.2,0.5,1.7,1.9,1.1,3.1c-0.5,1.2-1.9,1.7-3.1,1.1
		C19.7,5.6,19.2,4.3,19.8,3.1"/>
	<path id="XMLID_78_" d="M10.6,9.1c0.1-1.3,1.2-2.2,2.5-2.1c1.3,0.1,2.2,1.2,2.1,2.5c-0.1,1.3-1.2,2.2-2.5,2.1
		C11.4,11.4,10.5,10.3,10.6,9.1"/>
	<path id="XMLID_77_" d="M4.1,17.7c-0.3-1.2,0.4-2.5,1.6-2.8c1.2-0.3,2.5,0.4,2.8,1.6c0.3,1.2-0.4,2.5-1.6,2.8
		C5.6,19.7,4.4,19,4.1,17.7"/>
	<path id="XMLID_76_" d="M0.9,28.2c-0.7-1-0.5-2.5,0.6-3.2c1-0.7,2.5-0.5,3.2,0.6c0.7,1,0.5,2.5-0.6,3.2C3,29.5,1.6,29.2,0.9,28.2"
		/>
	<path id="XMLID_75_" d="M1.4,39c-1-0.7-1.3-2.2-0.6-3.2c0.7-1,2.2-1.3,3.2-0.6c1,0.7,1.3,2.2,0.6,3.2C3.9,39.5,2.5,39.8,1.4,39"/>
	<path id="XMLID_74_" d="M5.7,49.1c-1.2-0.3-2-1.6-1.6-2.8c0.3-1.2,1.6-2,2.8-1.6c1.2,0.3,2,1.6,1.6,2.8C8.2,48.7,6.9,49.4,5.7,49.1
		"/>
	<path id="XMLID_73_" d="M13.1,57c-1.3,0.1-2.4-0.8-2.5-2.1c-0.1-1.3,0.8-2.4,2.1-2.5c1.3-0.1,2.4,0.8,2.5,2.1
		C15.3,55.8,14.4,56.9,13.1,57"/>
	<path id="XMLID_72_" d="M22.8,62c-1.2,0.5-2.5,0-3.1-1.1c-0.5-1.2,0-2.5,1.1-3.1c1.2-0.5,2.5,0,3.1,1.1C24.5,60.1,24,61.5,22.8,62"
		/>
</g>
</svg>
